<?xml version="1.0" encoding="utf-8"?>
<!-- Generator: Adobe Illustrator 27.0.0, SVG Export Plug-In . SVG Version: 6.00 Build 0)  -->
<svg version="1.1" id="Layer_1" xmlns="http://www.w3.org/2000/svg" xmlns:xlink="http://www.w3.org/1999/xlink" x="0px" y="0px"
	 viewBox="0 0 29.9 23.2" style="enable-background:new 0 0 29.9 23.2;" xml:space="preserve">
<g>
	<path d="M23.1,1.5c-0.2,0-0.4,0.2-0.5,0.6l-5.5,14c0,0-0.1,0.1-0.1,0.1c-0.1,0-0.1,0-0.1-0.1c0-0.5-0.1-1.1-0.3-1.7
		c-0.4-1.2-1.5-2.7-4.4-3.2c-0.1,0-0.1,0-0.1-0.1c0,0,0-0.1,0.1-0.1c1.5-0.4,2.3-1.1,2.8-1.7c0.8-1,1.1-2.2,0.9-3.4
		c-0.7-3.8-4.4-4.3-8-4.3H3l0,0.4l0.9,0C4,1.9,4,2,4,2l0,18.8c0,0.1-0.1,0.1-0.1,0.1H1.7c-0.1,0-0.2,0.1-0.2,0.2l0,0.2l0.1,0l7,0
		L8.7,21l-0.9,0c-0.1,0-0.1,0-0.1-0.1l0-9.6l0-0.1l0-2.2l0-6.8l0-0.1l0.1,0h0.4c2.4,0,3.5,0.6,4,2.2c0.5,1.5,0.3,4-0.1,4.9
		c-0.3,0.8-0.7,1.3-1.4,1.5l-1.6,0.6l0.6,0c1.8,0.1,2.7,0.6,3,1.5c0.2,0.5,0.2,1.6,0.3,2.8c0.1,1.4,0.1,2.8,0.4,3.7
		c0.3,0.9,0.8,1.5,1.6,1.9l0.3,0.2l7.2-18c0,0,0.1-0.1,0.1-0.1c0.1,0,0.1,0.1,0.1,0.1l0,17.5c0,0.1-0.1,0.1-0.1,0.1h-0.9l0,0.4
		l5.7,0l0.2-0.2l-0.2-0.2l-0.8,0c-0.1,0-0.1,0-0.1-0.1l0.1-18.8c0,0,0-0.1,0.1-0.1c0.1,0,0.2,0,0.3,0h1.7l0.2-0.2l-0.2-0.2H23.1z"/>
</g>
</svg>
