<?xml version="1.0" encoding="UTF-8"?><svg id="Layer_1" xmlns="http://www.w3.org/2000/svg" viewBox="0 0 1024 1024"><defs><style>.cls-1{fill:#fcca8d;}.cls-2{fill:#fff;}.cls-3{fill:#ffa136;}.cls-4{fill:#25a8ff;}</style></defs><path class="cls-4" d="M1024,1024H0V0H1024V1024Z"/><path class="cls-3" d="M969.6,285.76c6.26,72.91-47.77,137.09-120.68,143.34-72.91,6.26-137.09-47.77-143.34-120.68-2.62-30.56,5.38-59.57,20.89-83.44-95.96-74.14-222.19-97.08-338.67-62.48-2.37,37.65-31.98,68.92-70.7,72.24-42.64,3.66-80.17-27.94-83.83-70.57-3.66-42.64,27.94-80.17,70.57-83.83,22.66-1.95,43.88,6.07,59.33,20.41,21.45-6.66,43.38-11.71,65.69-15.08,45.28-6.84,91.2-6.72,136.47,.38,45.26,7.09,88.88,21,129.65,41.32,29,14.46,56.1,32.03,81.06,52.36,15.15-7.96,32.1-13.1,50.23-14.65,72.91-6.26,137.09,47.77,143.34,120.68Z"/><path class="cls-2" d="M848.63,407.75l-.85-8.49c.63-.06,1.26-.13,1.88-.2l1,8.48c-.68,.08-1.35,.15-2.03,.22Zm-12.27,.56c-.68,0-1.37-.02-2.05-.04l.23-8.53c.63,.02,1.26,.03,1.89,.03l-.07,8.53Zm26.41-2.89l-1.92-8.31c.62-.14,1.23-.29,1.84-.44l2.07,8.28c-.66,.17-1.32,.32-1.99,.48Zm-40.71,1.84c-.68-.09-1.36-.19-2.03-.3l1.33-8.43c.62,.1,1.25,.19,1.87,.28l-1.17,8.45Zm54.45-5.96l-2.97-8c.59-.22,1.18-.45,1.77-.68l3.12,7.94c-.64,.25-1.27,.49-1.91,.73Zm-68.5,3.09c-.66-.18-1.32-.37-1.98-.56l2.4-8.19c.61,.18,1.22,.35,1.83,.52l-2.25,8.23Zm81.6-8.94l-3.98-7.55c.56-.29,1.11-.59,1.66-.89l4.12,7.48c-.6,.33-1.2,.65-1.8,.97Zm-95.17,4.28c-.63-.26-1.26-.53-1.89-.81l3.43-7.81c.58,.25,1.16,.5,1.74,.75l-3.29,7.88Zm107.39-11.76l-4.91-6.98c.52-.36,1.03-.73,1.54-1.1l5.04,6.89c-.55,.4-1.1,.8-1.66,1.19Zm-120.25,5.39c-.59-.34-1.18-.69-1.77-1.04l4.4-7.31c.54,.33,1.09,.65,1.63,.96l-4.27,7.39Zm131.41-14.38l-5.76-6.3c.47-.43,.93-.86,1.38-1.29l5.88,6.19c-.5,.47-.99,.94-1.5,1.4Zm-143.35,6.43c-.54-.41-1.08-.83-1.62-1.26l5.3-6.69c.49,.39,.99,.78,1.5,1.16l-5.17,6.79Zm153.28-16.76l-6.52-5.51c.41-.48,.81-.97,1.21-1.46l6.62,5.39c-.43,.53-.87,1.06-1.31,1.58Zm-164.11,7.36c-.49-.48-.97-.96-1.45-1.45l6.11-5.96c.44,.45,.88,.9,1.33,1.34l-5.99,6.08Zm172.65-18.88l-7.16-4.64c.34-.53,.68-1.06,1.01-1.6l7.25,4.5c-.36,.58-.73,1.16-1.1,1.73Zm-182.19,8.18c-.42-.54-.84-1.08-1.25-1.62l6.82-5.14c.38,.5,.76,1,1.15,1.5l-6.72,5.26Zm189.19-20.69l-7.7-3.69c.27-.57,.54-1.14,.8-1.72l7.76,3.54c-.28,.62-.58,1.24-.87,1.86Zm-197.29,8.86c-.35-.59-.69-1.17-1.03-1.77l7.42-4.22c.31,.55,.63,1.09,.95,1.63l-7.34,4.36Zm202.64-22.18l-8.11-2.67c.2-.6,.39-1.2,.58-1.81l8.16,2.51c-.2,.66-.41,1.31-.63,1.96Zm-209.15,9.41c-.27-.63-.54-1.26-.79-1.89l7.9-3.23c.24,.58,.48,1.17,.73,1.74l-7.84,3.38Zm212.75-23.3l-8.38-1.61c.12-.62,.23-1.24,.34-1.86l8.41,1.45c-.12,.68-.24,1.35-.37,2.02Zm-217.56,9.79c-.19-.66-.37-1.31-.54-1.97l8.25-2.19c.16,.61,.33,1.22,.5,1.83l-8.21,2.34Zm219.34-24.03l-8.52-.51c.04-.63,.07-1.26,.1-1.89l8.53,.35c-.03,.68-.06,1.37-.1,2.05Zm-222.38,10.01c-.1-.67-.2-1.35-.29-2.03l8.46-1.12c.08,.63,.17,1.25,.27,1.88l-8.44,1.27Zm222.32-24.34l-8.52,.57c-.04-.63-.09-1.26-.14-1.89l-.02-.23,8.5-.73,.02,.19c.06,.72,.11,1.4,.16,2.08Zm-215.03,9.87l-8.53,.2c-.02-.68-.03-1.37-.03-2.05l8.53-.05c0,.63,.01,1.26,.03,1.89Zm204.74-22.65c-.12-.62-.25-1.24-.39-1.85l8.34-1.82c.15,.67,.29,1.34,.42,2.01l-8.37,1.66Zm-204.21,9.41l-8.49-.89c.07-.68,.15-1.36,.23-2.04l8.47,1.05c-.08,.63-.15,1.25-.21,1.88Zm200.8-22.2c-.2-.6-.41-1.2-.62-1.79l8.04-2.87c.23,.64,.45,1.29,.67,1.93l-8.09,2.73Zm-198.57,9.15l-8.3-1.97c.16-.67,.32-1.33,.49-2l8.27,2.13c-.16,.61-.31,1.23-.46,1.84Zm193.54-21.4c-.28-.57-.56-1.13-.85-1.69l7.6-3.89c.31,.61,.62,1.22,.92,1.84l-7.67,3.75Zm-189.65,8.73l-7.98-3.03c.24-.64,.49-1.28,.75-1.92l7.92,3.18c-.24,.59-.46,1.18-.69,1.77Zm183.09-20.23c-.35-.53-.7-1.05-1.05-1.57l7.04-4.83c.39,.56,.77,1.13,1.14,1.7l-7.13,4.7Zm-177.6,8.17l-7.52-4.03c.32-.6,.65-1.2,.98-1.8l7.45,4.16c-.31,.55-.61,1.11-.91,1.66Zm169.62-18.73c-.41-.48-.83-.95-1.25-1.42l6.36-5.69c.45,.51,.9,1.02,1.35,1.54l-6.46,5.57Zm-162.64,7.46l-6.95-4.95c.4-.56,.8-1.11,1.2-1.66l6.86,5.08c-.38,.51-.75,1.02-1.11,1.53Zm153.37-16.93c-.47-.42-.94-.84-1.42-1.25l5.59-6.45c.52,.45,1.03,.9,1.53,1.35l-5.7,6.35Zm-145.01,6.65l-6.27-5.79c.46-.5,.93-1,1.4-1.49l6.16,5.91c-.44,.46-.87,.91-1.3,1.38Zm134.61-14.86c-.52-.36-1.04-.71-1.57-1.06l4.72-7.11c.57,.38,1.14,.76,1.7,1.15l-4.86,7.02Zm-125.02,5.73l-5.48-6.55c.52-.44,1.05-.87,1.58-1.3l5.36,6.64c-.49,.4-.98,.8-1.46,1.2Zm113.66-12.55c-.56-.29-1.12-.57-1.69-.85l3.78-7.65c.61,.3,1.23,.61,1.83,.93l-3.92,7.58Zm-102.98,4.72l-4.6-7.19c.57-.37,1.15-.73,1.73-1.08l4.46,7.27c-.54,.33-1.07,.66-1.6,1Zm90.85-10.04c-.59-.22-1.19-.43-1.79-.63l2.77-8.07c.65,.22,1.3,.45,1.94,.68l-2.92,8.02Zm-79.26,3.64l-3.63-7.72c.62-.29,1.24-.57,1.86-.85l3.5,7.79c-.58,.26-1.15,.52-1.72,.79Zm66.54-7.35c-.62-.14-1.23-.27-1.85-.39l1.7-8.36c.67,.14,1.34,.28,2.01,.43l-1.86,8.33Zm-54.22,2.5l-2.61-8.13c.65-.21,1.3-.41,1.96-.61l2.46,8.17c-.61,.18-1.21,.37-1.81,.56Zm41.14-4.54c-.63-.06-1.26-.11-1.89-.15l.61-8.51c.68,.05,1.36,.1,2.04,.17l-.77,8.5Zm-28.29,1.31l-1.54-8.39c.67-.12,1.34-.24,2.02-.35l1.39,8.42c-.62,.1-1.25,.21-1.87,.33Zm15.05-1.66c-.63,.02-1.26,.05-1.89,.09l-.48-8.52c.68-.04,1.37-.07,2.05-.1l.32,8.53Zm16.46,169.27c-22.93,6.66-48.19,2.6-53.84-13.32-2.71-7.63-.38-16.32,8.12-19.33,8.07-2.86,14.44,1.26,16.84,8.02,1.78,5.02,.26,9.73-2.52,13.66,5.26,3.05,17.48,2.89,27.68,.5l-16.24-45.81c-.22,.08-.3-.14-.3-.14-20.92,.54-43.33,.39-50.83-20.77-7.19-20.28,4.43-40.12,25.83-50.41l-3.56-10.03c-1.03-2.89,.49-6.07,3.38-7.09h0c2.89-1.03,6.07,.49,7.09,3.38l3.48,9.82c23.51-7.11,44.35-.26,48.84,12.39,2.86,8.07,1.02,15.35-6.39,17.98-8.94,3.17-14.44-1.26-16.76-7.81-1.55-4.36-.32-9.22,1.89-11.97-4.59-2.55-13.89-3.18-24.02-.57l15.08,42.53,1.68-.11c24.36-.54,43.14,1.15,50.79,22.75,6.11,17.23,2.51,39.63-25.87,52.39l4.25,12c1.03,2.89-.49,6.07-3.38,7.09h0c-2.89,1.03-6.07-.49-7.09-3.38l-4.18-11.78Zm-27.92-78.74l-13.77-38.83c-11.3,6.22-16.07,17-12.98,25.72,4.02,11.34,12.04,13.17,26.75,13.11Zm19.67,22.24l15.08,42.53c15.16-7.1,18.16-18.72,14.99-27.66-4.1-11.56-12.28-14.55-30.08-14.87ZM315.17,212.4c-30.29,2.6-56.96-19.85-59.56-50.14-2.6-30.29,19.85-56.96,50.14-59.56,30.29-2.6,56.96,19.85,59.56,50.14,2.6,30.29-19.85,56.96-50.14,59.56ZM96.2,465.03v-99.89H62.15v-65.58h34.05v-36.48c0-21.93,16.13-40.53,37.84-43.64l45.34-6.49v86.6h55.36v65.58h-55.36v105.97c0,22.51,2.86,38.78,8.58,48.84,5.72,10.06,16.46,19.33,32.23,27.81l-92.53,6.64c-11.61-5.9-19.75-14.71-24.43-26.42-4.68-11.71-7.02-32.69-7.02-62.95Zm244.86,83.84h-82.4v-209.58c0-22.8,16.75-42.14,39.31-45.4l43.08-6.22v261.2Zm29.4,120.08V347.55c0-26.5,21.48-47.98,47.98-47.98h33.37c8.14-3.32,16.2-5.76,24.17-7.33,7.97-1.57,16.11-2.35,24.43-2.35,33.79,0,61.64,12.45,83.57,37.35,21.92,24.9,32.88,57,32.88,96.29s-11.83,73.74-35.48,98.92c-23.65,25.18-54.54,37.77-92.66,37.77-5.03,0-10.4-.32-16.11-.97-5.72-.65-12.83-1.62-21.31-2.91v57.44c0,23.45-16.78,43.55-39.85,47.74l-40.98,7.43Zm81.36-177.36c5.72,1.66,10.66,2.86,14.82,3.6,4.16,.74,7.97,1.11,11.44,1.11,15.77,0,28.94-6.92,39.51-20.75,10.57-13.83,15.86-31.36,15.86-52.57,0-19.74-4.81-36.06-14.43-48.97-9.62-12.91-21.53-19.37-35.74-19.37-4.33,0-8.93,.51-13.78,1.52-4.85,1.02-10.75,2.72-17.67,5.12v130.32ZM75.65,857.13v-90.57h-30.87v-59.46h30.87v-28.9c0-22.29,16.38-41.18,38.44-44.34l36.97-5.29v78.53h50.2v59.46h-50.2v96.09c0,20.41,2.59,35.17,7.78,44.28,5.18,9.12,14.93,17.52,29.22,25.21l-83.9,6.02c-10.53-5.35-17.91-13.34-22.15-23.96-4.24-10.62-6.36-29.64-6.36-57.08Zm223.43,76.02h-74.24v-185.15c0-22.59,18.31-40.9,40.9-40.9h28.15l1.41,39.64c8.48-15.89,18.42-27.43,29.81-34.62,11.39-7.19,25.57-10.79,42.54-10.79h5.89v84.3h-16.03c-23.1,0-38.61,2.8-46.55,8.4-7.94,5.61-11.9,19.11-11.9,40.52v98.6Zm176.77,0h-74.71v-189.68c0-20.87,15.33-38.58,35.99-41.56l38.72-5.59v236.83Zm35.37,10.79v-312.75c0-20.7,15.19-38.27,35.67-41.27l38.1-5.57v132.54c9.43-5.18,18.5-9.07,27.22-11.67,8.72-2.59,17.16-3.89,25.34-3.89,28.91,0,52.32,10.91,70.23,32.74,17.91,21.83,26.87,50.3,26.87,85.42,0,37.13-10.65,67.07-31.93,89.82-21.29,22.75-49.3,34.12-84.02,34.12-4.4,0-9.35-.29-14.85-.88-5.5-.59-11.71-1.47-18.62-2.63l-26.87-6.77-47.13,10.79Zm73.77-62.72c5.34,1.51,9.86,2.6,13.55,3.26,3.69,.67,7.03,1,10.02,1,14.45,0,26.55-6.27,36.29-18.82,9.74-12.54,14.61-28.43,14.61-47.67,0-17.39-4.05-31.4-12.14-42.02-8.09-10.62-18.58-15.93-31.46-15.93-3.62,0-7.98,.96-13.08,2.89-5.11,1.92-11.04,4.89-17.79,8.91v108.38Zm382.51-28.85l-8.25,69.49c-14.46,7.36-28.68,12.79-42.66,16.31-13.99,3.51-28.13,5.27-42.42,5.27-35.35,0-63.87-10.83-85.55-32.49-21.68-21.66-32.52-49.88-32.52-84.67s11.86-66.94,35.59-91.95c23.72-25,52.56-37.51,86.49-37.51,29.07,0,52.91,9.16,71.53,27.47,18.62,18.31,27.93,42.02,27.93,71.12,0,4.52-.32,11.71-.94,21.58l-.24,1.51-6.6,10.29-144.94,4.27c1.1,15.22,7.07,27.56,17.91,37,10.84,9.45,24.51,14.18,41.01,14.18,11.63,0,24.55-2.67,38.77-8.03,14.22-5.35,29.18-13.3,44.9-23.83Zm-140.93-53.44l92.15-3.01v-3.51c0-11.87-3.93-21.61-11.78-29.23-7.86-7.61-17.76-11.42-29.7-11.42-13.36,0-24.51,4.14-33.47,12.42-8.96,8.28-14.69,19.86-17.2,34.75Z"/><path class="cls-1" d="M917.03,536.42c1.71-22.37,1.74-44.87,.07-67.33-1.51-20.23-4.39-40.28-8.6-60.05-17.4,11.04-37.63,18.18-59.58,20.07-1.42,.12-2.84,.21-4.25,.29,6.24,31.74,8.52,64.4,6.5,97.19-36.36,12.24-57.3,50.87-47.06,88.36,10.61,38.89,50.74,61.81,89.63,51.19,38.89-10.61,61.81-50.74,51.19-89.63-4.59-16.83-14.72-30.66-27.89-40.09Z"/></svg>